<svg width="24" height="24" viewBox="0 0 24 24" fill="none" xmlns="http://www.w3.org/2000/svg">
<path d="M7.00003 15.14C7.03159 15.2951 7.08906 15.4439 7.17003 15.58C7.48918 16.3595 7.9619 17.0669 8.56004 17.66C9.1616 18.255 9.87088 18.7301 10.65 19.0599C11.4507 19.4101 12.3162 19.5873 13.19 19.58C14.067 19.5863 14.9356 19.4092 15.74 19.0599C16.5161 18.7298 17.2221 18.2547 17.82 17.66C18.4231 17.0668 18.9023 16.3598 19.23 15.58C19.5556 14.7597 19.7121 13.8822 19.69 13C19.688 12.1216 19.5147 11.252 19.18 10.44C18.8521 9.66318 18.3728 8.9595 17.77 8.36995C17.1651 7.7576 16.4439 7.27231 15.6488 6.9426C14.8537 6.61288 14.0008 6.44539 13.14 6.44995C12.2519 6.45862 11.3745 6.64565 10.56 6.99995C10.1389 7.18708 9.73698 7.41482 9.36003 7.67995C8.94855 7.95302 8.5665 8.26804 8.22003 8.61995V3.22995H17.27C17.49 3.22995 17.61 3.01995 17.61 2.60995C17.61 2.19995 17.48 1.99995 17.26 1.99995H7.47003C7.41341 1.99719 7.35691 2.00748 7.3049 2.03002C7.25288 2.05256 7.20674 2.08675 7.17003 2.12995C7.13151 2.1677 7.10103 2.21285 7.0804 2.26269C7.05978 2.31253 7.04945 2.36602 7.05003 2.41995V9.99995C7.05348 10.0596 7.0706 10.1177 7.10008 10.1698C7.12956 10.2218 7.1706 10.2663 7.22003 10.3C7.34277 10.3877 7.48238 10.449 7.63003 10.48C7.77012 10.5231 7.91995 10.5231 8.06003 10.48C8.14491 10.455 8.22574 10.418 8.30003 10.37C8.35282 10.3186 8.39977 10.2616 8.44003 10.2C8.69411 9.83992 8.98209 9.50506 9.30003 9.19995C9.79135 8.69436 10.3812 8.29503 11.0332 8.02669C11.6851 7.75835 12.3852 7.62672 13.09 7.63995C13.8019 7.6304 14.508 7.76854 15.1638 8.04565C15.8195 8.32276 16.4107 8.73282 16.9 9.24995C17.4034 9.73563 17.8029 10.3184 18.0745 10.963C18.3461 11.6075 18.484 12.3005 18.48 13C18.474 13.6869 18.3348 14.3661 18.07 15C17.8118 15.6685 17.4221 16.2784 16.9239 16.7937C16.4258 17.309 15.8294 17.7192 15.17 18C14.5161 18.2667 13.8163 18.4026 13.11 18.4C12.1576 18.4075 11.2221 18.1476 10.41 17.65V13C10.4148 12.3356 10.6681 11.697 11.12 11.21C11.3655 10.9213 11.6726 10.6915 12.0188 10.5374C12.365 10.3834 12.7413 10.3091 13.12 10.32C13.4901 10.3046 13.8593 10.3669 14.2038 10.503C14.5483 10.639 14.8604 10.8458 15.12 11.11C15.368 11.3567 15.5625 11.6518 15.6916 11.977C15.8206 12.3021 15.8813 12.6503 15.87 13C15.8714 13.3627 15.8005 13.7221 15.6614 14.0571C15.5223 14.3921 15.3178 14.696 15.0599 14.9511C14.802 15.2062 14.4959 15.4074 14.1594 15.5428C13.8229 15.6782 13.4627 15.7453 13.1 15.74H12.76L12.39 15.67H12.24C12.03 15.61 11.87 15.77 11.75 16.15C11.63 16.53 11.68 16.75 11.89 16.83C12.2957 16.9506 12.7168 17.0112 13.14 17.01C13.661 17.0167 14.1779 16.9173 14.6593 16.7179C15.1407 16.5185 15.5764 16.2232 15.94 15.85C16.3209 15.4817 16.6208 15.038 16.8205 14.5473C17.0203 14.0565 17.1155 13.5295 17.1 13C17.1106 12.4814 17.0129 11.9663 16.8132 11.4876C16.6134 11.009 16.316 10.5772 15.94 10.22C15.577 9.84665 15.1411 9.55195 14.6595 9.35412C14.1778 9.15629 13.6606 9.05957 13.14 9.06995C12.6166 9.06037 12.0966 9.15738 11.6118 9.35508C11.127 9.55278 10.6875 9.84704 10.32 10.22C9.96353 10.5512 9.6785 10.9518 9.48246 11.3972C9.28641 11.8426 9.1835 12.3233 9.18004 12.81V16.61C8.70385 16.0651 8.33716 15.4336 8.10003 14.75C8.02004 14.54 7.80003 14.5 7.43003 14.62C7.06003 14.74 6.88003 14.91 6.95003 15.11L7.00003 15.14ZM13.25 4.13995C12.1041 4.11635 10.9661 4.33441 9.91003 4.77995C9.85211 4.7842 9.79747 4.80848 9.7555 4.84862C9.71353 4.88877 9.68685 4.94227 9.68004 4.99995C9.68462 5.14745 9.71509 5.29299 9.77004 5.42995C9.91004 5.77995 10.07 5.90995 10.27 5.83995C11.2042 5.4767 12.1977 5.2902 13.2 5.28995C14.2596 5.28121 15.309 5.49587 16.28 5.91995C17.1237 6.28756 17.9035 6.78715 18.59 7.39995C18.6131 7.42478 18.6409 7.44467 18.6718 7.45843C18.7028 7.47218 18.7362 7.4795 18.77 7.47995C18.86 7.47995 19.01 7.37995 19.2 7.18995L19.39 6.99995C19.4307 6.93758 19.4516 6.86439 19.45 6.78995C19.4437 6.71289 19.4079 6.64124 19.35 6.58995C18.5867 5.87205 17.6988 5.29935 16.73 4.89995C15.6168 4.41075 14.416 4.15221 13.2 4.13995H13.25ZM11.64 14.05C11.6475 14.1162 11.6692 14.18 11.7038 14.2369C11.7383 14.2939 11.7848 14.3427 11.84 14.38C11.9286 14.4835 12.0543 14.5481 12.19 14.56C12.2523 14.5628 12.3133 14.5413 12.36 14.5L13.09 13.77L13.79 14.45C13.8149 14.4825 13.8465 14.5093 13.8828 14.5283C13.9191 14.5473 13.9591 14.5581 14 14.56C14.139 14.5422 14.2669 14.4747 14.36 14.37C14.56 14.16 14.59 13.98 14.43 13.82L13.73 13.12L14.47 12.38C14.59 12.26 14.55 12.09 14.34 11.89C14.13 11.69 13.94 11.62 13.81 11.75L13.08 12.47L12.36 11.73C12.3154 11.7002 12.2636 11.6829 12.21 11.68C12.0762 11.7032 11.9554 11.7743 11.87 11.88C11.64 12.1 11.59 12.26 11.71 12.38L12.45 13.12L11.71 13.84C11.6464 13.8935 11.6038 13.9679 11.59 14.05H11.64ZM19.57 18.62C19.4628 18.5149 19.3375 18.4302 19.2 18.37C19.1514 18.3551 19.0996 18.3538 19.0503 18.3661C19.001 18.3784 18.956 18.404 18.92 18.44L18.85 18.51C18.1285 19.2278 17.2766 19.8014 16.34 20.2C14.8887 20.8107 13.2886 20.9761 11.743 20.6752C10.1974 20.3742 8.77622 19.6206 7.66003 18.51C6.90998 17.8028 6.31418 16.9483 5.91003 16C5.68207 15.4282 5.51123 14.8353 5.40003 14.23C5.40003 14.02 5.15003 13.94 4.77003 14C4.39003 14.06 4.21003 14.2 4.24003 14.4C4.34828 15.1262 4.54995 15.8354 4.84003 16.51C5.30771 17.5939 5.98776 18.5731 6.84003 19.3899C7.66257 20.2401 8.64463 20.9197 9.73003 21.3899C10.851 21.8599 12.0545 22.1013 13.27 22.1C14.4851 22.0973 15.6879 21.8561 16.81 21.3899C17.8954 20.9197 18.8775 20.2401 19.7 19.3899L19.76 19.33C19.85 19.11 19.78 18.89 19.52 18.62H19.57Z" fill="#FE6E00"/>
</svg>
