<?xml version="1.0" encoding="UTF-8"?>
<!DOCTYPE svg PUBLIC "-//W3C//DTD SVG 1.1//EN" "http://www.w3.org/Graphics/SVG/1.1/DTD/svg11.dtd">
<!-- Creator: CorelDRAW 2021 (64-Bit) -->
<svg xmlns="http://www.w3.org/2000/svg" xml:space="preserve" width="135.958mm" height="135.958mm" version="1.1" style="shape-rendering:geometricPrecision; text-rendering:geometricPrecision; image-rendering:optimizeQuality; fill-rule:evenodd; clip-rule:evenodd"
viewBox="0 0 13694.02 13694"
 xmlns:xlink="http://www.w3.org/1999/xlink"
 xmlns:xodm="http://www.corel.com/coreldraw/odm/2003">
 <defs>
  <style type="text/css">
   <![CDATA[
    .str0 {stroke:#2B2A29;stroke-width:20.14;stroke-miterlimit:22.9256}
    .str1 {stroke:black;stroke-width:7.68;stroke-miterlimit:10}
    .fil0 {fill:none}
    .fil7 {fill:#2B2A29}
    .fil9 {fill:yellow}
    .fil5 {fill:black;fill-rule:nonzero}
    .fil3 {fill:#0037FF;fill-rule:nonzero}
    .fil8 {fill:#0F0F0F;fill-rule:nonzero}
    .fil2 {fill:#48BD20;fill-rule:nonzero}
    .fil4 {fill:#82592C;fill-rule:nonzero}
    .fil6 {fill:#EB3C1D;fill-rule:nonzero}
    .fil1 {fill:#F6B620;fill-rule:nonzero}
   ]]>
  </style>
 </defs>
 <g id="Слой_x0020_1">
  <metadata id="CorelCorpID_0Corel-Layer"/>
  <g id="_2829595191552">
   <g>
    <path class="fil0 str0" d="M6847.01 10.07c3775.93,0 6836.94,3061 6836.94,6836.93 0,3775.93 -3061.01,6836.93 -6836.94,6836.93 -3775.93,0 -6836.94,-3061 -6836.94,-6836.93 0,-3775.93 3061.01,-6836.93 6836.94,-6836.93z"/>
    <path class="fil0 str0" d="M6847.01 892.35c3288.67,0 5954.66,2665.98 5954.66,5954.65 0,3288.67 -2665.99,5954.65 -5954.66,5954.65 -3288.67,0 -5954.66,-2665.98 -5954.66,-5954.65 0,-3288.67 2665.99,-5954.65 5954.66,-5954.65z"/>
   </g>
   <path class="fil1 str1" d="M2014.99 2014.98c-232.55,232.55 -446.49,479.39 -641.33,739.3l734.5 489.12c393.9,-516.88 870.3,-967.63 1409.31,-1332.53l-541.88 -695.85c-341.9,235.49 -663.01,502.37 -960.61,799.97z"/>
   <path class="fil2 str1" d="M4186.96 550.68c-427.81,180.96 -832.39,403.32 -1211.35,664.32l541.86 695.87c588.97,-398.73 1252.8,-694.76 1965.58,-862.46l-244.41 -844.36c-358.02,86.47 -709.21,201.8 -1051.68,346.64z"/>
   <path class="fil3 str1" d="M6847.01 13.49c-547.54,0 -1085.31,64.22 -1608.36,190.55l244.41 844.37c438.14,-103.09 894.77,-157.79 1363.95,-157.79 437.11,0 863.23,47.76 1273.78,137.58l280.39 -837.24c-505.99,-117.8 -1025.55,-177.46 -1554.17,-177.46z"/>
   <path class="fil4 str1" d="M9507.06 550.68c-359.73,-152.14 -729.05,-272.01 -1105.89,-359.74l-280.37 837.23c749.41,163.94 1446.46,469.39 2061.74,886.75l550.86 -689.53c-383.27,-265.5 -792.88,-491.37 -1226.34,-674.71z"/>
   <path class="fil5 str1" d="M11679.05 2014.98c-293.24,-293.25 -609.34,-556.63 -945.64,-789.61l-550.88 689.55c554.27,375.99 1042.02,842.9 1441.87,1379.04l741.16 -478.13c-206.85,-282.51 -435.73,-550.07 -686.51,-800.85z"/>
   <path class="fil6 str1" d="M12365.55 2815.83l-741.15 478.13c181.98,244.01 345.65,502.44 489.16,773.11l788.92 -389.65c-157.54,-300.63 -336.76,-588.21 -536.92,-861.59z"/>
   <path class="fil6 str1" d="M13312.14 4628.92l-837.67 265.81c202.7,582.28 317.26,1205.4 327.89,1853.44l877.16 0c-10.25,-728.21 -133.55,-1438.71 -367.38,-2119.24z"/>
   <path class="fil5" d="M12802.36 6748.15c0.53,32.92 1.05,65.82 1.05,98.85 0,3284.35 -2672.04,5956.39 -5956.41,5956.39 -3284.35,0 -5956.38,-2672.04 -5956.38,-5956.39 0,-19.28 0.54,-38.43 0.74,-57.66l-877.15 0c-0.17,19.24 -0.72,38.41 -0.72,57.66 0,922.32 180.75,1817.29 537.2,2660.04 344.2,813.78 836.85,1544.54 1464.29,2171.98 627.45,627.45 1358.19,1120.1 2171.97,1464.29 842.75,356.48 1737.73,537.2 2660.04,537.2 922.34,0 1817.32,-180.73 2660.06,-537.2 813.79,-344.19 1544.54,-836.84 2171.98,-1464.29 627.43,-627.44 1120.09,-1358.2 1464.29,-2171.98 356.46,-842.75 537.2,-1737.72 537.2,-2660.04 0,-33.01 -0.53,-65.92 -1.02,-98.85l-877.16 0z"/>
   <g>
    <g>
     <path class="fil7" d="M6845.86 1335.49l0 -4.74 2.04 2.38 2.04 -2.38 0 4.74c35.51,41.02 77.53,75.77 127.05,99.01 34.38,16.13 65.14,22.81 101.67,30.98 34.03,7.61 61.17,16.34 90,37.08 33.61,24.2 58.84,56.94 77.28,93.44 41.91,-15.51 86.17,-21.38 130.34,-12.07 34.77,7.33 59.76,22.08 88.09,41.96 30.79,21.59 57.02,40.32 92.29,55.1 49.58,20.79 102.34,28.47 156.04,26.27l2.23 -0.09 -0.09 2.2c-2.34,56.73 4.37,113.24 23.76,166.84 13.4,37.04 30.88,65.59 51.13,98.86 18.84,30.94 32.28,57.91 38.78,94.12 7.25,40.4 4.09,81.29 -6.63,120.76 40.6,19.07 75.42,46.43 101,83.3 20.94,30.2 30.24,59.27 38.61,94.21 9.11,37.97 16.88,71.16 33.47,107.11 23.34,50.53 57.34,94.29 98.85,131.64l1.52 1.37 -1.39 1.5c-38.26,41.06 -68.52,87.8 -87.66,140.39 -13.57,37.3 -18.61,71.13 -24.58,109.84 -5.49,35.63 -12.39,65.45 -30.74,97.42 -22.84,39.8 -56.01,70.66 -95.77,93.56 12.26,43.01 15.98,87.55 7.49,131.68 -7.07,36.73 -21.04,63.98 -40.7,95.15 -20.74,32.88 -38.8,61.01 -52.63,97.84 -20.08,53.45 -27.09,109.96 -24.69,166.79l0.09 2.2 -2.23 -0.09c-55.58,-2.18 -110.42,5.48 -162.04,26.31 -36.45,14.73 -63.79,33.46 -95.83,55.12 -29.58,19.97 -55.57,34.65 -91.44,41.93 -45.79,9.3 -91.74,3.46 -135.33,-12.11 -19.34,36.86 -45.63,69.48 -80.28,93.48 -30.02,20.81 -58.31,29.52 -93.39,37.08 -37.77,8.15 -69.89,14.88 -105.59,30.99 -51.31,23.17 -95.16,57.99 -132.44,99.58l-1.53 1.71 -1.54 -1.71c-37.29,-41.6 -81.14,-76.42 -132.45,-99.58 -35.69,-16.12 -67.8,-22.84 -105.58,-30.99 -35.08,-7.55 -63.37,-16.26 -93.4,-37.08 -34.61,-23.99 -60.91,-56.59 -80.24,-93.42 -43.54,15.52 -89.42,21.33 -135.15,12.05 -35.88,-7.28 -61.86,-21.96 -91.44,-41.93 -32.05,-21.66 -59.38,-40.39 -95.84,-55.12 -51.63,-20.84 -106.47,-28.47 -162.06,-26.3l-2.23 0.09 0.1 -2.2c2.43,-56.85 -4.59,-113.33 -24.67,-166.8 -13.97,-37.22 -32.1,-65.65 -53.09,-98.86 -19.47,-30.8 -33.48,-57.7 -40.26,-94.13 -8.37,-44.9 -3.38,-90.05 10.67,-133.24 -38.28,-22.7 -70.21,-52.99 -92.37,-91.59 -18.34,-31.96 -25.24,-61.79 -30.72,-97.43 -5.96,-38.71 -11.01,-72.53 -24.58,-109.84 -19.05,-52.33 -49.12,-98.87 -87.11,-139.77l-4.07 -0.19 2.11 -1.9 -1.96 -2.13 4.11 0.19c41.27,-37.25 75,-80.78 98.23,-131.09 16.6,-35.95 24.36,-69.14 33.48,-107.11 8.36,-34.93 17.66,-64.01 38.61,-94.21 25.57,-36.84 60.41,-64.23 100.99,-83.3 -10.82,-39.59 -14.02,-80.62 -6.74,-121.18 6.51,-36.22 19.94,-63.18 38.77,-94.12 20.24,-33.27 37.73,-61.83 51.13,-98.86 19.39,-53.58 26.1,-110.11 23.76,-166.83l-0.08 -2.2 2.22 0.09c53.69,2.2 106.46,-5.49 156.05,-26.28 35.27,-14.79 61.49,-33.5 92.28,-55.11 28.33,-19.88 53.33,-34.62 88.1,-41.95 44.11,-9.3 88.3,-3.46 130.15,12.01 18.45,-36.47 43.67,-69.2 77.26,-93.38 28.83,-20.74 55.95,-29.46 89.99,-37.07 36.55,-8.18 67.29,-14.87 101.68,-30.99 49.53,-23.23 91.55,-57.99 127.05,-99.01zm2.04 126.61c-14.08,11.79 -29.05,22.58 -44.7,32.24 -21.92,13.51 -43.56,23.48 -67.51,32.73 -26.54,10.25 -53.18,20.19 -79.98,29.76 -12.81,4.56 -26.05,8.96 -38.6,14.18 -57.34,23.82 -100.25,72.12 -132.21,122.51l1.18 3.11 -3.77 -0.72c-50.59,-9.67 -131.86,-20.97 -180.08,4.13 -19.15,9.96 -38.2,20.13 -57.29,30.2 -18.43,9.71 -36.99,19.22 -55.6,28.6 -22.79,11.48 -44.69,20.86 -69.35,28 -17.36,5.04 -35.11,8.75 -53.05,11.11 -2.1,19.1 -5.46,38.06 -10.1,56.72 -6.47,26.01 -15.16,49.59 -25.85,74.08 -11.91,27.33 -24.07,54.49 -36.6,81.53 -6,12.95 -12.38,26.04 -17.79,39.24 -24.29,59.42 -23.03,125.79 -11.16,187.88l0.55 3.68 -2.48 -1.45c-44.67,30.18 -109.84,79.19 -129.72,132.49 -7.87,21.12 -15.54,42.32 -23.31,63.49 -7.49,20.44 -15.21,40.79 -23.05,61.1 -9.56,24.75 -19.92,47.56 -33.59,70.48 -9.67,16.19 -20.46,31.71 -32.29,46.44 10.58,15.75 20.05,32.25 28.35,49.29 11.73,24.06 20.18,47.75 27.69,73.32 8.44,28.78 16.59,57.61 24.36,86.57 3.74,13.89 7.24,28.1 11.6,41.8 19.14,60.17 60.8,108.38 110.32,146.93l0.36 0.29 4.84 -1.71 -0.69 3.5c-12.35,62.09 -13.6,128.69 11.57,187.95 5.61,13.21 12.24,26.29 18.47,39.24 13.01,27.03 25.65,54.2 38.02,81.52 11.08,24.48 20.09,48 26.81,74.09 4.81,18.64 8.31,37.62 10.5,56.73 18.6,2.37 37.04,6.08 55.1,11.12 25.52,7.12 48.29,16.5 71.99,28 19.33,9.37 38.58,18.88 57.72,28.61 19.82,10.06 39.61,20.21 59.49,30.19 50.36,25.24 133.11,14.29 186.08,4.31l0.93 -2.6 1.4 2.16 2.54 -0.48 -1.2 2.55c33.71,51.86 78.29,99.54 137.15,123.1 13.07,5.23 26.79,9.62 40.11,14.19 27.83,9.57 55.48,19.5 83.05,29.75 24.76,9.22 47.28,19.23 70.05,32.73 16.27,9.64 31.82,20.45 46.5,32.3 14.67,-11.87 30.23,-22.67 46.48,-32.3 22.77,-13.51 45.29,-23.52 70.04,-32.73 27.57,-10.25 55.23,-20.19 83.06,-29.75 13.32,-4.57 27.03,-8.96 40.1,-14.19 59.22,-23.69 103.98,-71.8 137.78,-124.03l0.75 -1.16 1.37 0.26c52.97,10.04 136.53,21.31 187.23,-4.11 19.87,-9.97 39.67,-20.12 59.5,-30.19 19.15,-9.73 38.4,-19.24 57.71,-28.61 23.71,-11.5 46.47,-20.88 72,-28 18.05,-5.03 36.48,-8.76 55.08,-11.11 2.19,-19.12 5.7,-38.1 10.52,-56.74 6.73,-26.09 15.73,-49.63 26.8,-74.1 8.98,-19.88 18.11,-39.7 27.45,-59.42 9.69,-20.47 19.42,-40.92 29.06,-61.41 24.5,-52.03 24.48,-132.91 21.85,-188.69l-0.05 -1.04 0.83 -0.64c49.52,-38.55 91.23,-86.77 110.35,-146.93 4.35,-13.7 7.86,-27.91 11.59,-41.8 7.78,-28.96 15.91,-57.8 24.36,-86.58 7.49,-25.56 15.93,-49.24 27.67,-73.32 8.31,-17.04 17.78,-33.52 28.35,-49.29 -11.84,-14.7 -22.63,-30.25 -32.29,-46.42 -13.67,-22.93 -23.99,-45.72 -33.56,-70.49 -7.85,-20.31 -15.56,-40.66 -23.07,-61.11 -7.77,-21.15 -15.48,-42.34 -23.35,-63.47 -19.83,-53.22 -84.75,-102.11 -129.35,-132.25l0.32 0.33 -3.39 1.24 0.67 -3.52c11.89,-62.1 13.16,-128.52 -11.15,-187.99 -5.41,-13.2 -11.78,-26.29 -17.79,-39.24 -12.53,-27.04 -24.71,-54.21 -36.61,-81.53 -10.69,-24.49 -19.37,-48.08 -25.84,-74.07 -4.64,-18.65 -8.02,-37.63 -10.1,-56.73 -17.94,-2.36 -35.69,-6.07 -53.05,-11.11 -24.67,-7.14 -46.55,-16.52 -69.35,-28 -18.6,-9.38 -37.16,-18.89 -55.59,-28.6 -19.1,-10.06 -38.16,-20.24 -57.31,-30.2 -48.77,-25.37 -129.14,-14.16 -180.24,-4.1l-1.4 0.28 -0.75 -1.21c-32.09,-51.51 -75.1,-100.1 -132.68,-124.01 -12.55,-5.22 -25.77,-9.62 -38.6,-14.18 -26.8,-9.57 -53.44,-19.51 -79.98,-29.76 -23.95,-9.26 -45.6,-19.23 -67.52,-32.73 -15.65,-9.65 -30.61,-20.45 -44.69,-32.24zm-397.41 2131.57l-21.92 46.39c1.01,2.15 2.03,4.28 3.08,6.41l18.84 -52.8z"/>
    </g>
    <path class="fil8" d="M6426.32 3640.05c14.32,30.77 40.21,74.71 86.59,106.86 64.33,44.59 116.54,30.78 198.65,67.88 34.45,15.54 82.81,43.97 133.12,100.09l0 -123.18c-10.85,-8.84 -26.89,-20.93 -47.54,-33.19 -29.42,-17.42 -53.75,-26.63 -69.72,-32.56 -76.48,-28.46 -103.79,-36.22 -123.2,-43.98 -37.8,-15.13 -88.67,-47.47 -138.72,-124.82 -13.04,27.64 -26.11,55.29 -39.18,82.91zm836.75 0c-14.33,30.77 -40.21,74.71 -86.59,106.86 -64.33,44.59 -116.54,30.78 -198.65,67.88 -34.45,15.54 -82.83,43.97 -133.13,100.09l0 -123.18c10.85,-8.84 26.88,-20.93 47.55,-33.19 29.41,-17.42 53.74,-26.63 69.71,-32.56 76.48,-28.46 103.79,-36.22 123.19,-43.98 37.82,-15.13 88.69,-47.47 138.74,-124.82 13.04,27.64 26.11,55.29 39.18,82.91zm-812.65 -2040.61c14.61,-29.55 38.64,-66.96 77.94,-95.24 61.93,-44.59 112.23,-30.76 191.33,-67.87 33.16,-15.55 79.78,-43.97 128.22,-100.09l0 123.19c-10.45,8.83 -25.91,20.91 -45.79,33.18 -28.31,17.44 -51.77,26.62 -67.17,32.56 -73.67,28.46 -99.96,36.22 -118.63,43.97 -36.41,15.14 -85.35,47.42 -133.51,124.62l0.07 0.2 -0.17 -0.03 -0.02 0.03 -0.02 -0.04c-101.99,-20.05 -153.32,-10.26 -181.39,4.33 -2.89,1.52 -21.63,11.38 -57.29,30.2 -14.51,7.63 -32.54,16.98 -55.58,28.58 -14.8,7.45 -37.44,18.7 -68.98,27.86 -22.16,6.41 -41.1,9.57 -54.35,11.25l0 0.01c-1.49,14.13 -4.34,34.36 -10.22,58.03 -8.38,33.73 -18.81,57.96 -25.72,73.77 -33.03,75.81 -46.4,101.21 -54.42,120.82 -15.62,38.19 -28.67,98.02 -11.28,188.96l0.04 0.02 -0.03 0.02 0.02 0.11 -0.12 -0.04c-88.1,58.47 -119.89,102.61 -131.44,133.58 -1.19,3.19 -8.83,23.96 -23.32,63.5 -5.9,16.07 -13.35,35.93 -23.04,61.06 -6.24,16.15 -15.87,40.73 -33.45,70.17 -12.32,20.65 -24.32,36.57 -33.05,47.36 7.81,11.53 18.44,28.51 29.04,50.28 15.1,30.94 22.66,56.32 27.57,73 23.4,79.77 29.52,108.17 35.98,128.41 12.55,39.5 40.68,93.16 111,147.92l-13.12 6.06 16.9 -5.96c-18.09,91.01 -4.54,150.89 11.69,189.11 8.33,19.61 22.21,45 56.52,120.82 7.17,15.82 17.99,40.05 26.7,73.77 6.09,23.68 9.05,43.9 10.62,58.04l0 0.01c13.75,1.67 33.39,4.84 56.4,11.25 32.77,9.16 56.25,20.41 71.63,27.86 23.9,11.6 42.64,20.94 57.69,28.58 37.04,18.8 56.51,28.69 59.5,30.2 29.16,14.61 82.51,24.4 188.55,4.28 -11.39,31.94 -22.78,63.9 -34.2,95.84 -31.3,11.25 -79.88,23.38 -134.77,12.23 -76.11,-15.44 -103.4,-63.23 -186.91,-96.94 -34.98,-14.13 -88.73,-29.36 -162.91,-26.45l0 0c3.25,-76.22 -11.27,-131.52 -24.79,-167.59 -32.31,-86.02 -78.67,-114.33 -93.27,-192.65 -10.01,-53.8 0.47,-101.59 11.11,-133.77 -27.95,-16.38 -65.98,-44.54 -93.04,-91.68 -39.02,-67.97 -23.88,-120.99 -55.16,-206.95 -13.1,-36.02 -37.68,-86.96 -88.09,-141.05l22.78 1.06 -22.77 -1.08c54.66,-49.17 83.31,-97.61 99.32,-132.3 38.19,-82.69 27.45,-136.92 71.92,-201 31.35,-45.18 72.45,-69.78 101.73,-83.34 -8.79,-31.53 -15.69,-74.38 -7.14,-121.93 14.05,-78.31 58.67,-106.62 89.8,-192.66 13.04,-36.04 27.01,-91.36 23.88,-167.58l0 -0.01c71.45,2.93 123.19,-12.3 156.93,-26.43 80.41,-33.72 106.71,-81.49 180.01,-96.95 52.86,-11.14 99.64,0.98 129.81,12.23l0.45 1.31zm1402.39 1449.87c9.11,31.43 18.17,78.84 7.88,132.26 -15.34,79.78 -61.39,107.89 -93.23,192.66 -13.56,36.06 -28.05,91.37 -24.83,167.58l0.01 0.01c-74.16,-2.91 -127.92,12.32 -162.9,26.45 -83.51,33.7 -110.79,81.49 -186.91,96.94 -54.88,11.15 -103.46,-0.98 -134.78,-12.23 -11.39,-31.94 -22.79,-63.9 -34.19,-95.84 106.03,20.12 159.39,10.33 188.55,-4.28 2.98,-1.51 22.45,-11.39 59.51,-30.2 15.05,-7.64 33.78,-16.98 57.68,-28.58 15.38,-7.45 38.87,-18.7 71.64,-27.86 23,-6.41 42.64,-9.58 56.38,-11.25 1.57,-14.15 4.53,-34.36 10.65,-58.06 8.7,-33.72 19.54,-57.92 26.69,-73.77 11.13,-24.6 20.1,-43.88 27.44,-59.39 17.06,-36.03 27.85,-58.81 29.06,-61.41 14.19,-30.1 26.99,-84.24 22.04,-189.64l0 0c70.32,-54.75 98.47,-108.42 111.03,-147.92 6.43,-20.25 12.55,-48.62 35.97,-128.42 4.89,-16.67 12.46,-42.05 27.55,-72.99 10.6,-21.76 21.24,-38.75 29.05,-50.29l0 0c-8.74,-10.77 -20.73,-26.7 -33.06,-47.35 -17.57,-29.44 -27.19,-54.04 -33.42,-70.16 -9.72,-25.14 -17.15,-45 -23.05,-61.08 -14.51,-39.53 -22.15,-60.29 -23.36,-63.49 -11.5,-30.93 -43.23,-74.98 -131.05,-133.33l-0.61 0.21c17.44,-91.02 4.37,-150.89 -11.26,-189.12 -8.01,-19.61 -21.38,-45 -54.42,-120.82 -6.91,-15.81 -17.32,-40.04 -25.72,-73.77 -5.87,-23.67 -8.73,-43.89 -10.22,-58.03l0 -0.01c-13.24,-1.68 -32.16,-4.84 -54.34,-11.25 -31.56,-9.16 -54.19,-20.41 -68.98,-27.86 -23.03,-11.6 -41.05,-20.95 -55.56,-28.58 -35.69,-18.81 -54.42,-28.68 -57.32,-30.2 -28.08,-14.6 -79.46,-24.4 -181.6,-4.29 -48.19,-77.34 -97.19,-109.68 -133.63,-124.82 -18.68,-7.75 -44.96,-15.5 -118.63,-43.97 -15.39,-5.94 -38.86,-15.13 -67.18,-32.56 -19.88,-12.27 -35.32,-24.34 -45.78,-33.18l0 -123.19c48.44,56.12 95.06,84.54 128.22,100.09 79.1,37.11 129.4,23.28 191.33,67.87 39.42,28.36 63.45,65.9 78.05,95.48l0.54 -1.55c30.17,-11.25 76.96,-23.37 129.81,-12.23 73.31,15.45 99.6,63.22 180.01,96.95 33.74,14.13 85.48,29.36 156.94,26.43l0 0.01c-3.14,76.23 10.84,131.54 23.87,167.58 31.12,86.04 75.76,114.35 89.82,192.66 8.49,47.34 1.69,90.02 -7.04,121.5 29.28,13.56 70.38,38.13 101.74,83.35 44.46,64.08 33.73,118.3 71.92,201.01 16,34.67 44.67,83.11 99.32,132.3l0 0c-50.41,54.09 -74.98,105.04 -88.07,141.07 -31.28,85.96 -16.14,138.97 -55.18,206.93 -28.15,49.04 -68.19,77.56 -96.38,93.61z"/>
    <path class="fil6" d="M7341.99 2625.55c0,276.48 -221.6,500.6 -494.97,500.6 -273.37,0 -494.99,-224.12 -494.99,-500.6 0,-276.47 221.62,-500.59 494.99,-500.59 273.37,0 494.97,224.12 494.97,500.59z"/>
   </g>
   <path class="fil5" d="M3691.53 4368.71c-3.14,0 -4.94,0 -8.09,0 -36.38,0 -77.7,-4.95 -109.14,-12.58l-46.26 -13.02c-47.61,-12.57 -83.99,-17.06 -121.71,-17.06 -174.27,0 -309.02,120.36 -309.02,275.32 0,101.51 53.9,179.2 166.18,242.54 28.75,14.37 55.7,26.95 167.98,76.36 182.35,79.05 250.17,147.32 250.17,255.12 0,121.71 -101.05,208.85 -242.1,208.85 -93.42,0 -169.78,-39.52 -236.24,-121.71 -50.75,-61.98 -87.13,-131.6 -110.95,-212.45l-22.01 0 22.01 292.85 22.46 8.08c72.76,28.75 109.14,39.52 151.81,50.75 60.19,12.58 125.32,22.01 172.92,22.01 223.23,0 388.07,-139.23 388.07,-326.08 0,-90.28 -38.18,-167.98 -107.8,-226.82 -47.6,-36.38 -88.47,-58.39 -220.08,-112.3 -112.74,-46.26 -164.84,-73.2 -209.3,-104.65 -44.47,-35.03 -69.62,-80.84 -69.62,-132.94 0,-97.02 79.05,-164.84 193.13,-164.84 82.64,0 157.2,33.24 210.65,93.43 35.03,39.52 58.83,87.13 85.79,177.41l26.94 0 -45.81 -258.26zm-58.84 967.91c55.7,-48.95 77.71,-94.77 77.71,-161.24 0,-66.93 -28.75,-128.46 -82.2,-177.87 -36.82,-34.59 -88.93,-63.33 -185.49,-104.21 -50.75,-22.45 -90.28,-39.97 -119.02,-53.9 -39.53,-17.52 -75.91,-38.17 -107.8,-63.32 -57.04,-43.12 -90.28,-107.8 -90.28,-181.01 0,-80.85 36.38,-145.52 110.95,-198.08 -50.75,61.98 -66.48,97.02 -66.48,150.91 0,61.54 26.94,115.44 77.7,156.75 47.61,37.73 79.06,53.9 229.52,117.23 106.45,44.47 158.56,72.76 201.22,110.94 50.75,45.82 82.64,115.44 82.64,181.91 0,87.12 -42.67,160.34 -128.46,221.87zm-514.72 -30.09l-9.88 -104.66c39.98,66.93 68.27,98.37 139.68,161.7 -55.69,-18.87 -98.36,-37.73 -129.8,-57.04zm784.21 95.21l481.94 0 0 -23.8c-50.75,-8.09 -88.93,-26.95 -114.09,-55.25 -28.74,-31.89 -36.38,-66.92 -36.38,-157.21l0 -291.49 543.48 0 0 291.49c0,82.65 -8.09,119.03 -30.1,149.12 -25.6,33.24 -65.13,53.9 -120.82,63.33l0 23.8 481.94 0 0 -23.8c-50.75,-8.09 -88.94,-26.95 -115.88,-55.25 -26.95,-31.89 -36.38,-66.92 -36.38,-157.21l0 -584.34c0,-82.64 8.08,-119.02 30.09,-147.32 25.6,-33.69 66.48,-55.7 122.18,-65.13l0 -23.8 -481.94 0 0 23.8c50.75,9.43 87.13,26.95 114.08,55.25 28.75,31.89 36.83,68.27 36.83,157.2l0 258.26 -543.48 0 0 -258.26c0,-82.64 6.3,-119.02 28.3,-147.32 25.6,-33.69 66.48,-55.7 122.17,-65.13l0 -23.8 -481.94 0 0 23.8c50.75,9.43 88.93,26.95 114.09,55.25 28.75,31.89 36.38,68.27 36.38,157.2l0 584.34c0,82.65 -6.3,119.03 -28.3,149.12 -25.6,33.24 -66.47,53.9 -122.17,63.33l0 23.8zm107.79 -39.52l30.1 -22.46c36.38,-26.94 41.33,-34.58 41.33,-66.47 0,-12.58 1.34,-22.01 1.34,-25.15 0,-6.3 0,-11.23 0,-12.58l0 -724.47c0,0 0,-4.49 0,-12.58 0,-3.14 -1.34,-12.57 -1.34,-25.15 0,-31.89 -4.95,-39.52 -41.33,-66.48l-42.67 -33.68 253.32 0 -44.02 33.68c-35.03,26.95 -41.33,34.59 -41.33,66.48 0,12.58 0,22.01 0,25.15 -1.79,8.09 0,12.58 0,12.58l0 724.47c0,1.35 -1.79,6.29 0,12.58 0,3.14 0,12.57 0,25.15 0,31.89 4.49,39.52 41.33,66.47l30.1 22.46 -226.83 0zm724.03 0l30.1 -22.46c36.82,-26.94 41.32,-34.58 41.32,-66.47 0,-12.58 0,-22.01 0,-25.15 0,-6.3 0,-11.23 0,-12.58l0 -724.47c0,0 0,-4.49 0,-12.58 0,-3.14 0,-12.57 0,-25.15 0,-31.89 -4.49,-39.52 -41.32,-66.48l-44.03 -33.68 255.12 0 -44.47 33.68c-36.38,26.95 -41.32,34.59 -42.67,66.48 0,12.58 0,22.01 0,25.15 0,8.09 0,12.58 0,12.58l0 724.47c0,1.35 0,6.29 0,12.58 0,3.14 0,12.57 0,25.15 1.35,31.89 6.29,39.52 42.67,66.47l30.1 22.46 -226.82 0zm928.39 -527.74l247.48 370.99c34.58,53.45 47.6,77.25 47.6,104.21 0,46.26 -28.74,63.32 -110.94,68.27l0 23.8 503.94 0 0 -23.8c-68.27,-4.95 -112.74,-30.1 -161.69,-90.28l-60.19 -82.2c-4.94,-8.08 -11.23,-14.37 -14.37,-20.66l-318.44 -478.79 52.1 -52.1 16.17 -15.71 75.9 -71.42c115.44,-112.73 207.51,-172.92 300.94,-198.07l0 -23.8 -427.6 0 0 23.8c69.62,8.09 114.09,47.61 114.09,106 0,44.47 -22.46,80.85 -100.16,156.75l-302.28 295.09 0 -345.4c0,-82.64 6.29,-119.02 28.29,-147.32 25.6,-33.69 66.48,-55.7 122.17,-65.13l0 -23.8 -481.94 0 0 23.8c50.75,9.43 88.94,26.95 114.09,55.25 28.75,31.89 36.38,68.27 36.38,157.2l0 584.34c0,82.65 -6.3,119.03 -28.3,149.12 -25.59,33.24 -66.47,53.9 -122.17,63.33l0 23.8 492.71 0 0 -23.8c-55.24,-8.09 -94.77,-26.95 -123.52,-55.25 -30.09,-31.89 -37.72,-66.92 -37.72,-157.21l0 -196.28 137.44 -134.74zm22.46 -20.67l60.18 -60.18 304.07 458.13c3.15,4.48 11.23,15.71 22.46,31.44l45.81 58.84c15.72,20.66 35.04,37.72 66.48,60.18l-225.02 0c22.46,-19.31 31.89,-36.38 31.89,-57.04 0,-25.6 -12.57,-50.75 -61.97,-123.52l-243.89 -367.86zm266.34 -319.79c3.14,-11.22 3.14,-20.66 3.14,-25.59 0,-36.38 -16.17,-66.48 -50.75,-95.22l189.99 0c-48.96,36.82 -92.07,73.2 -142.38,120.82zm-649.92 868.2l30.1 -22.46c36.38,-26.94 41.33,-34.58 41.33,-66.47 0,-12.58 1.34,-22.01 1.34,-25.15 0,-6.3 -1.34,-11.23 -1.34,-12.58l0 -724.47c0,0 1.34,-4.49 1.34,-12.58 0,-3.14 -1.34,-12.57 -1.34,-25.15 0,-31.89 -4.95,-39.52 -41.33,-66.48l-42.67 -33.68 253.32 0 -44.02 33.68c-36.83,26.95 -41.32,34.59 -41.32,66.48 0,12.58 0,22.01 0,25.15 -1.8,8.09 -1.8,12.58 -1.8,12.58l0 724.47c0,1.35 0,6.29 1.8,12.58 0,3.14 0,12.57 0,25.15 0,31.89 4.48,39.52 41.32,66.47l30.1 22.46 -226.83 0zm1784.02 -351.68l85.79 196.28c18.87,42.67 25.15,63.33 25.15,82.64 0,34.59 -20.66,60.19 -55.25,74.11 -19.31,6.29 -41.32,9.43 -90.28,14.37l0 23.8 494.06 0 0 -23.8c-72.76,-15.72 -115.43,-50.75 -151.81,-125.32l-35.03 -70.96c-4.95,-9.88 -8.09,-16.18 -9.44,-20.66l-372.34 -834.97 -20.66 0 -342.25 772.98c-75.9,172.92 -136.54,245.68 -234.46,278.92l0 23.8 400.64 0 0 -23.8c-114.08,-22.01 -166.18,-69.62 -166.18,-149.12 0,-30.1 11.23,-72.76 30.1,-118.57l44.46 -99.71 397.5 0zm-14.37 -31.89l-369.2 0 182.35 -421.3 186.85 421.3zm-171.13 -453.19l44.47 -101.51 332.82 746.48c45.81,104.65 72.76,149.12 119.02,191.79l-204.37 0c28.3,-28.75 39.53,-49.4 39.53,-72.76 0,-17.52 -6.3,-38.17 -23.81,-76.36l-8.09 -17.52 -299.58 -670.12zm-269.04 836.76l-158.55 0c55.25,-41.32 79.05,-71.41 110.94,-133.4 -1.79,8.09 0,16.17 0,22.46 0,39.52 11.23,68.27 47.61,110.94zm1302.53 -513.37l132.94 0c106,0 134.75,18.86 189.99,134.74l41.33 85.34c65.13,132.94 155.4,240.75 251.97,299.58 77.71,47.61 150.47,65.13 261.4,65.13l0 -20.66c-87.13,-31.89 -145.97,-97.02 -267.69,-293.29 -109.6,-177.41 -172.92,-239.4 -288.36,-285.2 185.06,-14.37 282.07,-93.43 282.07,-233.11 0,-166.18 -147.33,-270.83 -388.52,-270.83 -33.24,0 -66.48,1.79 -99.71,4.94l-109.14 10.78c-46.26,3.6 -101.51,6.74 -155.4,6.74 -36.38,0 -68.27,-1.79 -95.21,-3.14l-67.83 -3.6c-1.79,0 -8.09,0 -19.31,-1.34l0 23.8c53.9,11.23 87.13,26.95 114.08,55.25 28.75,31.89 36.38,66.92 36.38,157.2l0 584.34c0,82.65 -6.29,119.03 -28.29,149.12 -25.6,33.24 -66.48,53.9 -122.17,63.33l0 23.8 492.71 0 0 -23.8c-55.25,-8.09 -94.77,-26.95 -123.52,-55.25 -30.1,-31.89 -37.73,-66.92 -37.73,-157.21l0 -316.64zm0 -31.89l0 -269.05c0,-53.9 6.29,-95.21 18.87,-119.02 25.15,-42.67 74.55,-66.47 145.52,-66.47 145.98,0 247.48,96.56 247.48,235.8 0,85.79 -39.53,158.55 -101.51,191.79 -35.04,17.52 -93.43,26.95 -172.93,26.95l-137.44 0zm300.93 3.14c95.22,-42.68 139.24,-114.09 139.24,-225.02 0,-97.92 -48.96,-177.41 -136.1,-223.23 131.6,23.81 220.09,115.43 220.09,228.17 0,106 -83.99,188.64 -223.23,220.09zm487.78 581.64c-169.33,-31.89 -292.85,-141.03 -400.64,-353.47 -9.43,-20.66 -20.66,-42.68 -31.89,-64.68 -26.95,-50.75 -28.29,-53.9 -39.52,-71.41 -14.37,-22.01 -26.95,-36.38 -50.75,-63.32 96.56,39.52 160.35,104.65 258.26,267.69 66.47,110.94 92.07,145.98 139.68,193.13 39.52,41.32 69.62,63.32 124.87,92.07zm-1012.38 -39.52l30.1 -22.46c36.38,-26.94 41.32,-34.58 41.32,-66.47 0,-12.58 1.35,-22.01 1.35,-25.15 0,-6.3 0,-11.23 0,-12.58l0 -724.47c0,0 0,-4.49 0,-12.58 0,-3.14 -1.35,-12.57 -1.35,-25.15 0,-30.1 -8.09,-43.12 -41.32,-66.48l-41.33 -28.75c41.33,1.8 63.78,1.8 95.22,1.8 36.38,0 80.84,-1.8 126.66,-3.14l28.75 -3.6 -42.68 33.68 -4.94 4.49c-31.89,23.81 -36.38,31.89 -36.38,61.98 0,12.58 0,22.01 0,25.15 -1.79,8.09 -1.79,12.58 -1.79,12.58l0 724.47c0,1.35 0,6.29 1.79,12.58 0,3.14 0,12.57 0,25.15 0,31.89 4.49,39.52 41.32,66.47l30.1 22.46 -226.82 0zm1137.69 39.52l481.94 0 0 -23.8c-50.75,-8.09 -88.93,-26.95 -114.08,-55.25 -28.75,-31.89 -36.38,-66.92 -36.38,-157.21l0 -584.34c0,-82.64 6.29,-119.02 28.29,-147.32 25.6,-33.69 66.48,-55.7 122.17,-65.13l0 -23.8 -481.94 0 0 23.8c50.75,9.43 88.94,26.95 114.09,55.25 28.75,31.89 36.38,68.27 36.38,157.2l0 584.34c0,82.65 -6.29,119.03 -28.3,149.12 -25.59,33.24 -66.47,53.9 -122.17,63.33l0 23.8zm107.8 -39.52l30.09 -22.46c36.38,-26.94 41.33,-34.58 41.33,-66.47 0,-12.58 1.35,-22.01 1.35,-25.15 0,-6.3 0,-11.23 0,-12.58l0 -724.47c0,0 0,-4.49 0,-12.58 0,-3.14 -1.35,-12.57 -1.35,-25.15 0,-31.89 -4.95,-39.52 -41.33,-66.48l-42.67 -33.68 253.32 0 -44.02 33.68c-36.82,26.95 -41.32,34.59 -41.32,66.48 0,12.58 0,22.01 0,25.15 -1.8,8.09 0,12.58 0,12.58l0 724.47c0,1.35 -1.8,6.29 0,12.58 0,3.14 0,12.57 0,25.15 0,31.89 4.49,39.52 41.32,66.47l30.1 22.46 -226.82 0zm1529.35 64.67l0 -804.87c0,-169.32 28.29,-223.22 139.24,-253.32l0 -23.8 -369.21 0 0 23.8c142.38,20.66 201.22,95.22 201.22,255.12l0 532.24 -655.76 -698.87c-1.79,-3.14 -6.73,-7.63 -13.02,-13.93 -15.71,-19.31 -26.94,-31.89 -31.44,-39.97 -16.18,-17.07 -26.95,-33.24 -41.33,-58.39l-299.58 0 0 23.8c57.04,18.87 87.13,39.52 166.63,122.17l0 552.9c0,90.28 -4.95,141.03 -20.66,188.64 -23.81,69.62 -71.42,120.37 -139.69,145.52l0 23.8 404.24 0 0 -23.8c-79.06,-15.72 -134.75,-50.75 -171.13,-107.79 -30.1,-48.96 -41.33,-112.3 -42.67,-229.52l0 -518.32 849.33 904.58 23.81 0zm-28.75 -48.95l-849.34 -904.59c-39.52,-43.12 -77.71,-76.36 -115.43,-100.16l158.09 0c19.32,36.82 46.26,73.2 79.5,107.79l727.17 774.79 0 122.17zm-95.22 -1004.74l149.12 0c-28.75,33.68 -36.38,47.61 -53.9,97.02 -28.29,-52.55 -45.82,-71.41 -95.22,-97.02zm-697.08 989.02l-158.55 0c43.12,-39.52 58.84,-63.32 80.85,-122.17 19.31,52.55 38.17,80.85 77.7,122.17z"/>
   <path class="fil5" d="M4157.21 5726.72c-3.13,0 -4.93,0 -8.06,0 -36.29,0 -77.51,-4.93 -108.87,-12.54l-46.14 -12.99c-47.49,-12.55 -83.78,-17.02 -121.41,-17.02 -173.83,0 -308.22,120.06 -308.22,274.62 0,101.25 53.76,178.75 165.76,241.92 28.67,14.33 55.55,26.88 167.55,76.16 181.88,78.86 249.54,146.94 249.54,254.46 0,121.41 -100.8,208.32 -241.48,208.32 -93.18,0 -169.34,-39.42 -235.64,-121.41 -50.63,-61.82 -86.91,-131.26 -110.66,-211.9l-21.95 0 21.95 292.09 22.4 8.07c72.58,28.67 108.87,39.42 151.43,50.62 60.03,12.54 125,21.95 172.48,21.95 222.67,0 387.08,-138.88 387.08,-325.25 0,-90.05 -38.07,-167.55 -107.52,-226.23 -47.48,-36.29 -88.25,-58.25 -219.51,-112 -112.46,-46.14 -164.42,-73.02 -208.78,-104.39 -44.35,-34.94 -69.44,-80.64 -69.44,-132.61 0,-96.76 78.86,-164.41 192.64,-164.41 82.43,0 156.8,33.15 210.12,93.18 34.94,39.42 58.69,86.91 85.56,176.97l26.88 0 -45.7 -257.61zm-58.69 965.44c55.56,-48.83 77.51,-94.53 77.51,-160.83 0,-66.75 -28.67,-128.13 -81.98,-177.4 -36.74,-34.5 -88.71,-63.17 -185.03,-103.94 -50.62,-22.4 -90.05,-39.88 -118.72,-53.77 -39.42,-17.48 -75.71,-38.08 -107.52,-63.16 -56.9,-43.01 -90.05,-107.52 -90.05,-180.54 0,-80.65 36.28,-145.16 110.65,-197.58 -50.62,61.82 -66.31,96.77 -66.31,150.53 0,61.38 26.88,115.14 77.51,156.35 47.49,37.64 78.85,53.77 228.93,116.93 106.17,44.36 158.14,72.58 200.7,110.66 50.62,45.7 82.43,115.14 82.43,181.44 0,86.91 -42.56,159.94 -128.13,221.31zm-513.4 -30.02l-9.86 -104.38c39.88,66.75 68.1,98.11 139.33,161.28 -55.55,-18.81 -98.11,-37.63 -129.47,-56.9zm1713.15 -946.63c-12.54,1.79 -20.61,1.79 -31.35,1.79 -26.88,0 -56.9,-3.13 -115.59,-12.99 -91.84,-17.02 -129.47,-21.95 -183.23,-21.95 -336.9,0 -592.71,240.12 -592.71,554.63 0,167.55 71.24,324.35 191.3,422.02 94.53,79.3 219.52,120.06 363.32,120.06 249.99,0 428.29,-121.41 515.2,-348.99l-31.35 0c-85.57,189.51 -227.59,293.89 -403.2,293.89 -255.81,0 -453.38,-233.86 -453.38,-538.94 0,-271.94 181.44,-469.51 428.29,-469.51 164.42,0 270.15,77.51 377.67,275.07l25.08 0 -90.05 -275.07zm-396.48 1036.67c-118.72,-6.26 -206.97,-34.49 -290.75,-93.18 -129.92,-90.05 -207.42,-248.19 -207.42,-420.22 0,-219.52 118.72,-392.01 333.75,-488.32 -180.09,121.4 -254.46,252.67 -254.46,455.16 0,278.21 150.09,473.99 418.88,546.56zm606.6 4.94l480.71 0 0 -23.75c-50.62,-8.06 -88.71,-26.87 -113.8,-55.11 -28.68,-31.81 -36.29,-66.75 -36.29,-156.79l0 -290.75 542.09 0 0 290.75c0,82.43 -8.07,118.72 -30.02,148.74 -25.54,33.15 -64.97,53.76 -120.51,63.16l0 23.75 480.71 0 0 -23.75c-50.62,-8.06 -88.71,-26.87 -115.59,-55.11 -26.88,-31.81 -36.29,-66.75 -36.29,-156.79l0 -582.85c0,-82.43 8.07,-118.72 30.03,-146.94 25.53,-33.6 66.3,-55.56 121.85,-64.97l0 -23.74 -480.71 0 0 23.74c50.62,9.41 86.91,26.88 113.8,55.11 28.67,31.81 36.73,68.1 36.73,156.8l0 257.6 -542.09 0 0 -257.6c0,-82.43 6.27,-118.72 28.22,-146.94 25.54,-33.6 66.31,-55.56 121.86,-64.97l0 -23.74 -480.71 0 0 23.74c50.62,9.41 88.71,26.88 113.79,55.11 28.68,31.81 36.29,68.1 36.29,156.8l0 582.85c0,82.43 -6.26,118.72 -28.22,148.74 -25.53,33.15 -66.31,53.76 -121.85,63.16l0 23.75zm107.52 -39.42l30.02 -22.4c36.29,-26.88 41.22,-34.5 41.22,-66.31 0,-12.55 1.34,-21.96 1.34,-25.09 0,-6.27 0,-11.2 0,-12.54l0 -722.63c0,0 0,-4.48 0,-12.54 0,-3.14 -1.34,-12.55 -1.34,-25.09 0,-31.81 -4.93,-39.42 -41.22,-66.31l-42.57 -33.6 252.67 0 -43.89 33.6c-34.95,26.88 -41.23,34.5 -41.23,66.31 0,12.54 0,21.95 0,25.09 -1.78,8.06 0,12.54 0,12.54l0 722.63c0,1.34 -1.78,6.26 0,12.54 0,3.13 0,12.54 0,25.09 0,31.81 4.48,39.42 41.23,66.31l30.02 22.4 -226.24 0zm722.18 0l30.02 -22.4c36.73,-26.88 41.22,-34.5 41.22,-66.31 0,-12.55 0,-21.96 0,-25.09 0,-6.27 0,-11.2 0,-12.54l0 -722.63c0,0 0,-4.48 0,-12.54 0,-3.14 0,-12.55 0,-25.09 0,-31.81 -4.48,-39.42 -41.22,-66.31l-43.9 -33.6 254.46 0 -44.35 33.6c-36.29,26.88 -41.22,34.5 -42.57,66.31 0,12.54 0,21.95 0,25.09 0,8.06 0,12.54 0,12.54l0 722.63c0,1.34 0,6.26 0,12.54 0,3.13 0,12.54 0,25.09 1.35,31.81 6.27,39.42 42.57,66.31l30.02 22.4 -226.24 0zm466.36 -486.98c0,306.88 248.2,553.28 556.42,553.28 303.3,0 549.7,-248.19 549.7,-553.28 0,-305.09 -248.19,-552.83 -551.49,-552.83 -306.43,0 -554.63,247.75 -554.63,552.83zm195.78 -4.48c0,-314.49 140.67,-518.34 357.5,-518.34 217.73,0 357.06,202.05 357.06,516.54 0,180.1 -42.57,325.7 -125,412.61 -63.16,68.1 -143.81,104.39 -230.72,104.39 -218.17,0 -358.84,-200.71 -358.84,-515.2zm124.99 480.26c-183.23,-99.46 -290.74,-275.07 -290.74,-475.78 0,-200.71 107.51,-374.53 290.74,-472.64 -140.67,107.52 -203.84,253.11 -203.84,468.16 0,221.32 68.1,380.8 203.84,480.26zm423.37 0c71.23,-56.9 106.18,-99.46 134.4,-159.49 39.87,-85.56 61.82,-202.49 61.82,-322.56 0,-208.77 -55.56,-363.32 -169.34,-461.44 155,83.77 256.26,268.8 256.26,469.51 0,208.32 -94.98,365.12 -283.14,473.99zm463.23 -475.78c0,306.88 248.2,553.28 556.42,553.28 303.29,0 549.7,-248.19 549.7,-553.28 0,-305.09 -248.2,-552.83 -551.49,-552.83 -306.43,0 -554.63,247.75 -554.63,552.83zm195.78 -4.48c0,-314.49 140.67,-518.34 357.5,-518.34 217.73,0 357.06,202.05 357.06,516.54 0,180.1 -42.57,325.7 -125,412.61 -63.17,68.1 -143.81,104.39 -230.72,104.39 -218.17,0 -358.84,-200.71 -358.84,-515.2zm124.99 480.26c-183.23,-99.46 -290.75,-275.07 -290.75,-475.78 0,-200.71 107.52,-374.53 290.75,-472.64 -140.67,107.52 -203.84,253.11 -203.84,468.16 0,221.32 68.1,380.8 203.84,480.26zm423.37 0c71.23,-56.9 106.17,-99.46 134.4,-159.49 39.87,-85.56 61.82,-202.49 61.82,-322.56 0,-208.77 -55.56,-363.32 -169.34,-461.44 155,83.77 256.26,268.8 256.26,469.51 0,208.32 -94.98,365.12 -283.14,473.99zm951.55 -1003.53l-496.39 0 0 23.74c50.63,9.41 88.71,26.88 113.8,55.11 28.68,31.81 36.29,68.1 36.29,156.8l0 582.85c0,82.43 -6.27,118.72 -28.22,148.74 -25.54,33.15 -66.31,53.76 -121.86,63.16l0 23.75 853.45 0 91.84 -320.77 -23.74 0c-153.22,198.91 -276.42,281.35 -413.96,281.35l-16.13 0c-66.31,0 -107.08,-12.55 -132.61,-44.36 -20.61,-26.88 -28.22,-66.31 -28.22,-145.59l0 -589.12c0,-82.43 7.61,-118.72 31.35,-146.94 28.68,-33.6 72.58,-55.56 134.4,-64.97l0 -23.74zm301.95 1014.73l-137.54 0c75.71,-38.08 125,-77.51 180.09,-143.81l-42.56 143.81zm-690.82 0l30.03 -22.4c36.28,-26.88 41.22,-34.5 41.22,-66.31 0,-12.55 1.34,-21.96 1.34,-25.09 0,-6.27 0,-11.2 0,-12.54l0 -722.63c0,0 0,-4.48 0,-12.54 0,-3.14 -1.34,-12.55 -1.34,-25.09 0,-31.81 -4.94,-39.42 -41.22,-66.31l-42.57 -33.6 252.67 0 -43.9 33.6c-34.94,26.88 -41.22,34.5 -41.22,66.31 0,12.54 0,21.95 0,25.09 -1.79,8.06 0,12.54 0,12.54l0 722.63c0,1.34 -1.79,6.26 0,12.54 0,3.13 0,12.54 0,25.09 0,31.81 4.48,39.42 41.22,66.31l30.02 22.4 -226.24 0z"/>
   <path class="fil5" d="M5527.25 8408.48l-452.14 0 0 21.36c56.82,8.46 92.28,22.56 120.89,49.57 29.82,28.61 38.28,60.04 38.28,141.04l0 535.96c0,45.13 -1.61,86.64 -7.25,109.21 -8.46,45.54 -39.9,75.35 -79.39,75.35 -35.86,0 -60.04,-24.17 -60.04,-59.64 0,-8.46 1.61,-18.53 4.43,-31.44l2.82 -15.31c4.43,-14.5 5.64,-25.79 5.64,-35.87 0,-42.31 -33.85,-75.36 -79.39,-75.36 -49.97,0 -84.21,38.69 -84.21,93.9 0,89.86 89.86,157.96 206.32,157.96 92.28,0 170.46,-44.33 216,-119.28 25.79,-42.72 37.08,-99.54 37.08,-176.52l0 -458.99c0,-72.54 5.64,-106.79 25.39,-132.18 21.35,-30.23 57.22,-49.97 105.58,-58.43l0 -21.36zm-342.94 25.39l227.68 0 -39.9 30.22c-31.43,24.18 -37.07,31.03 -37.07,59.65 0,11.28 0,19.74 0,22.56 0,7.25 0,11.29 0,11.29l0 504.93c0,163.21 -35.46,238.57 -132.18,278.46 48.36,-35.45 58.43,-70.92 58.43,-204.71l0 -571.43 0 -18.54c0,-52.39 -1.61,-55.21 -37.08,-82.21l-39.9 -30.22zm-102.35 911.55c-72.54,-18.54 -119.29,-69.72 -119.29,-129.36 0,-34.26 14.1,-58.44 37.08,-58.44 15.71,0 28.21,14.11 28.21,32.64 0,2.82 -1.21,11.28 -2.82,21.35 -1.21,10.08 -2.83,27 -2.83,35.46 0,44.33 11.29,64.08 59.65,98.34zm952.65 -936.94l-442.08 0 0 21.36c45.55,8.46 79.79,24.17 102.36,49.57 25.78,28.61 32.64,61.25 32.64,141.04l0 334.08c0,97.92 14.5,180.53 38.27,232.92 58.44,122.51 182.16,191.82 338.51,191.82 147.89,0 268.79,-63.67 330.05,-173.28 32.63,-58.43 45.13,-120.89 45.13,-230.1l0 -338.51c0,-125.32 34.25,-180.53 128.15,-207.53l0 -21.36 -322.79 0 0 21.36c43.92,7.25 82.61,25.38 112.44,54 37.08,34.26 54,88.25 54,169.25l0 322.78c0,83.82 -7.25,135 -25.79,180.53 -45.54,110.82 -136.21,173.28 -255.88,173.28 -83.82,0 -162,-32.64 -211.57,-88.25 -47.15,-51.18 -68.51,-119.29 -68.51,-213.18l0 -24.17 0 -383.64c0,-74.15 7.25,-106.79 28.62,-132.18 24.17,-30.23 62.46,-49.97 116.47,-58.43l0 -21.36zm465.03 25.39c-24.17,25.78 -34.26,42.72 -48.36,78.18 -21.35,-38.28 -37.08,-55.22 -74.15,-78.18l122.51 0zm-824.5 0l232.93 0 -42.72 30.22c-29.82,19.75 -36.67,32.64 -36.67,59.65 0,11.28 0,19.74 0,22.56 -1.61,7.25 0,11.29 0,11.29l0 429.57c0,122.11 14.1,189.01 58.03,245.82 48.36,64.07 116.87,103.97 211.97,125.33 -187.79,-3.22 -315.53,-112.44 -335.69,-291.76 -4.03,-35.46 -8.46,-96.71 -8.46,-120.9l0 -388.06c0,0 0,-4.04 0,-11.29 0,-2.82 -1.21,-11.28 -1.21,-22.56 0,-27 -7.25,-39.9 -37.08,-59.65l-41.1 -30.22zm997.78 922.83c10.07,0 15.71,-1.61 17.32,-1.61l95.11 -5.64c25.38,-1.21 59.64,-4.03 97.92,-4.03 45.54,0 76.97,2.82 129.36,6.85 87.04,7.25 101.15,8.86 138.22,8.86 312.71,0 520.25,-193.44 520.25,-481.97 0,-282.9 -201.9,-477.94 -496.07,-477.94 -35.87,0 -51.19,0 -130.97,7.25 -70.93,5.64 -124.93,8.46 -176.1,8.46 -30.23,0 -58.44,-1.21 -85.43,-2.82l-81 -4.43c-2.82,0 -11.29,0 -27,-1.21l0 21.36c45.54,8.46 79.39,24.17 103.56,49.57 24.18,28.61 32.64,61.25 32.64,141.04l0 524.28c0,74.15 -6.85,106.79 -26.99,133.79 -22.57,29.82 -59.65,48.36 -109.21,56.82l-1.61 21.36zm300.22 -777.76c0,-103.56 48.36,-150.71 157.57,-150.71 210.35,0 363.89,186.17 363.89,442.07 0,265.97 -151.93,453.75 -367.93,453.75 -68.5,0 -119.68,-28.62 -139.43,-78.18 -11.28,-28.61 -15.71,-68.5 -15.71,-130.97l1.61 -535.96zm-200.69 742.29l27 -20.14c32.64,-24.18 37.08,-31.03 37.08,-59.65 0,-11.28 0,-19.74 0,-22.56 0,-5.64 0,-10.08 0,-11.29l0 -650c0,0 0,-4.04 0,-11.29 0,-2.82 0,-11.28 0,-22.56 0,-28.62 -5.64,-35.46 -37.08,-59.65l-36.67 -26.99 12.49 1.21c44.33,2.82 79.79,4.43 103.98,4.43 32.64,0 59.64,-1.61 105.17,-5.64l-37.08 26.99c-31.02,22.57 -37.08,31.03 -37.08,59.65 0,11.28 0,19.74 0,22.56 0,7.25 0,11.29 0,11.29l0 650c0,1.21 0,5.65 0,11.29 0,2.82 0,11.28 0,22.56 0,27 8.87,39.9 37.08,59.65l27 18.53c-38.28,-4.03 -62.46,-5.64 -92.28,-5.64 -35.46,0 -62.47,2.82 -109.62,7.25zm467.86 4.03c92.28,-32.64 147.89,-73.75 196.25,-143.46 54.01,-79.39 86.64,-194.65 86.64,-311.5 0,-109.21 -28.61,-210.36 -79.78,-289.75 -42.72,-64.07 -92.28,-105.17 -173.28,-145.07 201.89,55.61 329.63,227.28 329.63,442.07 0,118.08 -38.28,221.64 -114.84,305.86 -66.9,75.36 -138.23,116.47 -244.61,141.85zm521.86 -442.07c0,276.04 223.25,497.68 500.5,497.68 272.83,0 494.47,-223.25 494.47,-497.68 0,-274.43 -223.26,-497.28 -496.08,-497.28 -275.64,0 -498.89,222.85 -498.89,497.28zm176.1 -4.03c0,-282.9 126.54,-466.25 321.58,-466.25 195.85,0 321.18,181.74 321.18,464.64 0,162 -38.28,292.97 -112.44,371.14 -56.82,61.26 -129.36,93.89 -207.54,93.89 -196.25,0 -322.78,-180.53 -322.78,-463.42zm112.43 432c-164.81,-89.46 -261.53,-247.43 -261.53,-427.97 0,-180.53 96.71,-336.9 261.53,-425.15 -126.53,96.72 -183.35,227.69 -183.35,421.12 0,199.07 61.26,342.54 183.35,432zm380.82 0c64.08,-51.18 95.5,-89.46 120.9,-143.47 35.87,-76.96 55.61,-182.15 55.61,-290.14 0,-187.79 -49.97,-326.82 -152.32,-415.08 139.43,75.36 230.5,241.79 230.5,422.33 0,187.38 -85.43,328.43 -254.69,426.36z"/>
   <path class="fil5" d="M5152.21 10845.12l615.31 0 0 -27.34c-69.12,-9.29 -118.63,-30.95 -154.73,-63.44 -38.17,-36.61 -49.52,-76.84 -49.52,-180.51l0 -966.03 -403.85 85.61 0 27.34c160.4,14.44 196.51,54.67 196.51,225.4l0 627.68c0,96.45 -8.77,136.68 -39.71,171.24 -34.56,38.16 -89.23,61.88 -164.02,72.72l0 27.34zm154.73 -45.39l34.56 -25.79c41.78,-30.94 47.45,-39.71 47.45,-76.33 0,-14.44 1.55,-25.27 1.55,-28.89 0,-7.22 -1.55,-12.89 -1.55,-14.44l0 -791.7 1.55 -14.44 -1.55 -29.39c0,-28.89 -5.67,-41.78 -23.72,-56.22l-20.11 -14.44c-3.62,-2.05 -5.17,-3.61 -7.22,-3.61l-69.12 -38.16 214.56 -45.91 0 993.88c0,1.55 0,7.22 2.06,14.44 0,3.62 0,14.44 0,28.89 0,36.61 5.16,45.39 47.45,76.33l34.56 25.79 -260.47 0zm1153.76 -651.41c123.27,-72.72 180,-154.73 180,-264.07 0,-159.89 -140.29,-274.39 -334.73,-274.39 -213.01,0 -358.45,128.94 -358.45,316.17 0,118.62 52.61,205.79 176.38,289.34 -65.5,27.33 -102.11,45.9 -143.89,76.84 -77.88,57.76 -127.39,150.61 -127.39,245.51 0,190.83 178.45,331.11 422.41,331.11 269.23,0 451.3,-152.66 451.3,-374.96 0,-159.89 -82.01,-267.17 -265.62,-345.56zm-34.56 -14.44c-256.84,-91.29 -356.9,-174.84 -356.9,-298.63 0,-112.95 91.28,-190.83 223.83,-190.83 149.06,0 260.47,105.21 260.47,243.44 0,92.85 -43.84,176.91 -127.4,246.02zm-282.11 96.45c41.77,23.21 70.66,36.1 134.61,63.43 139.77,58.28 176.39,76.33 225.4,112.95 60.34,41.78 91.28,101.61 91.28,170.72 0,140.29 -127.39,243.95 -303.78,243.95 -173.3,0 -300.7,-128.93 -300.7,-301.72 0,-111.4 42.29,-191.34 153.19,-289.33zm394.56 524.01c65.5,-60.34 89.22,-109.33 89.22,-182.07 0,-65.5 -25.27,-125.84 -76.33,-171.23 -54.67,-49 -87.16,-67.05 -254.79,-138.22 -114.5,-47.45 -172.79,-79.95 -225.4,-131.01 -60.34,-54.67 -92.84,-131 -92.84,-213.01 0,-83.56 25.27,-139.77 87.16,-200.11 -32.49,49.5 -43.83,84.06 -43.83,138.22 0,131 87.68,231.06 262,302.24l129.46 54.67c180,72.72 254.79,163.49 254.79,305.84 0,101.61 -38.16,172.79 -129.45,234.67zm-518.35 -451.29c-63.96,94.38 -85.61,151.11 -85.61,223.83 0,123.79 59.83,214.56 192.89,290.9 -143.9,-36.11 -241.89,-149.06 -241.89,-280.06 0,-98.52 41.78,-171.24 134.62,-234.67zm1419.38 -154.73c123.27,-72.72 180,-154.73 180,-264.07 0,-159.89 -140.29,-274.39 -334.73,-274.39 -213.01,0 -358.45,128.94 -358.45,316.17 0,118.62 52.61,205.79 176.39,289.34 -65.51,27.33 -102.12,45.9 -143.9,76.84 -77.88,57.76 -127.39,150.61 -127.39,245.51 0,190.83 178.45,331.11 422.41,331.11 269.23,0 451.3,-152.66 451.3,-374.96 0,-159.89 -82.01,-267.17 -265.62,-345.56zm-34.55 -14.44c-256.85,-91.29 -356.91,-174.84 -356.91,-298.63 0,-112.95 91.28,-190.83 223.83,-190.83 149.06,0 260.47,105.21 260.47,243.44 0,92.85 -43.84,176.91 -127.39,246.02zm-282.12 96.45c41.77,23.21 70.66,36.1 134.61,63.43 139.77,58.28 176.39,76.33 225.4,112.95 60.34,41.78 91.28,101.61 91.28,170.72 0,140.29 -127.39,243.95 -303.78,243.95 -173.3,0 -300.7,-128.93 -300.7,-301.72 0,-111.4 42.29,-191.34 153.19,-289.33zm394.56 524.01c65.5,-60.34 89.22,-109.33 89.22,-182.07 0,-65.5 -25.27,-125.84 -76.33,-171.23 -54.67,-49 -87.16,-67.05 -254.79,-138.22 -114.5,-47.45 -172.78,-79.95 -225.4,-131.01 -60.34,-54.67 -92.84,-131 -92.84,-213.01 0,-83.56 25.27,-139.77 87.16,-200.11 -32.49,49.5 -43.83,84.06 -43.83,138.22 0,131 87.68,231.06 262.01,302.24l129.45 54.67c180,72.72 254.79,163.49 254.79,305.84 0,101.61 -38.16,172.79 -129.45,234.67zm-518.35 -451.29c-63.96,94.38 -85.61,151.11 -85.61,223.83 0,123.79 59.83,214.56 192.89,290.9 -143.9,-36.11 -241.89,-149.06 -241.89,-280.06 0,-98.52 41.78,-171.24 134.62,-234.67zm886.08 358.45c54.67,-74.79 120.17,-141.84 241.89,-242.41l143.89 -118.11c180,-149.06 245.51,-249.12 245.51,-374.96 0,-183.62 -154.73,-316.17 -367.75,-316.17 -188.76,0 -338.34,101.61 -338.34,229 0,61.89 36.62,102.12 89.23,102.12 54.67,0 82,-36.62 83.55,-109.34l2.06 -47.45c3.61,-90.78 43.83,-136.17 116.57,-136.17 110.89,0 198.05,116.05 198.05,265.62 0,112.44 -46.94,218.16 -167.11,369.29 -29.4,34.55 -71.17,87.15 -122.24,151.11 -145.44,177.94 -200.11,259.94 -252.72,374.44l2.06 36.62 696.8 0 85.1 -329.57 -28.89 0c-76.33,105.73 -163.49,145.96 -320.29,145.96l-307.39 0zm85.61 -991.81c-47.45,49 -61.89,92.84 -61.89,178.45 0,30.95 -10.83,46.94 -33.01,46.94 -19.6,0 -34.56,-21.66 -34.56,-52.61 0,-67.05 43.84,-125.33 129.46,-172.78zm418.29 1131.58l-591.07 0c14.44,-32.49 19.6,-43.32 38.16,-74.27l394.56 0c82.01,0 140.29,-14.96 189.29,-45.9l-30.94 120.17zm-341.95 -369.29c59.83,-65.5 134.62,-159.89 178.45,-223.83 74.27,-108.83 107.28,-198.06 107.28,-294.5 0,-120.17 -47.45,-213.02 -134.62,-262.01 139.77,18.05 231.07,121.71 231.07,262.01 0,101.6 -43.84,182.07 -176.39,321.84 -63.95,67.56 -136.68,136.67 -205.79,196.5z"/>
   <path class="fil7" d="M10529.44 7671.64l-7364.86 0c-53.12,0 -98.38,-41.57 -98.38,-95.39 0,-53.83 45.25,-95.38 98.38,-95.38l7364.86 0c53.12,0 98.38,41.56 98.38,95.38 0,53.83 -45.26,95.39 -98.38,95.39z"/>
   <path class="fil9 str0" d="M389.77 4596.07l830.74 297.69c208.87,-601.72 511.53,-1159.47 890.44,-1656l-748.35 -473.57c-411.71,552.23 -741.73,1168.86 -972.84,1831.87z"/>
  </g>
 </g>
</svg>
